<mxfile host="app.diagrams.net" modified="2021-04-26T09:22:17.100Z" agent="5.0 (Macintosh; Intel Mac OS X 10_15_7) AppleWebKit/537.36 (KHTML, like Gecko) Chrome/89.0.4389.114 Safari/537.36" etag="-s8Zh814GXPCLvvaOMCT" version="14.5.4" type="github">
  <diagram id="LaMq1OyoT_aroa8AbQIz" name="Page-1">
    <mxGraphModel dx="946" dy="613" grid="1" gridSize="10" guides="1" tooltips="1" connect="1" arrows="1" fold="1" page="1" pageScale="1" pageWidth="827" pageHeight="1169" math="0" shadow="0">
      <root>
        <mxCell id="0" />
        <mxCell id="1" parent="0" />
        <mxCell id="dDQQiO8JoJNOpQra_xHU-5" style="edgeStyle=orthogonalEdgeStyle;rounded=0;orthogonalLoop=1;jettySize=auto;html=1;entryX=0.5;entryY=0;entryDx=0;entryDy=0;" edge="1" parent="1" target="dDQQiO8JoJNOpQra_xHU-3">
          <mxGeometry relative="1" as="geometry">
            <mxPoint x="300" y="160" as="sourcePoint" />
          </mxGeometry>
        </mxCell>
        <mxCell id="dDQQiO8JoJNOpQra_xHU-4" style="edgeStyle=orthogonalEdgeStyle;rounded=0;orthogonalLoop=1;jettySize=auto;html=1;exitX=0.5;exitY=1;exitDx=0;exitDy=0;" edge="1" parent="1" source="dDQQiO8JoJNOpQra_xHU-3" target="dDQQiO8JoJNOpQra_xHU-6">
          <mxGeometry relative="1" as="geometry">
            <mxPoint x="300" y="290" as="targetPoint" />
          </mxGeometry>
        </mxCell>
        <mxCell id="dDQQiO8JoJNOpQra_xHU-3" value="套件模型新增提测" style="rounded=0;whiteSpace=wrap;html=1;" vertex="1" parent="1">
          <mxGeometry x="240" y="190" width="120" height="60" as="geometry" />
        </mxCell>
        <mxCell id="dDQQiO8JoJNOpQra_xHU-8" style="edgeStyle=orthogonalEdgeStyle;rounded=0;orthogonalLoop=1;jettySize=auto;html=1;exitX=0.5;exitY=1;exitDx=0;exitDy=0;entryX=0.5;entryY=0;entryDx=0;entryDy=0;" edge="1" parent="1" source="dDQQiO8JoJNOpQra_xHU-6" target="dDQQiO8JoJNOpQra_xHU-7">
          <mxGeometry relative="1" as="geometry" />
        </mxCell>
        <mxCell id="dDQQiO8JoJNOpQra_xHU-13" value="否" style="edgeLabel;html=1;align=center;verticalAlign=middle;resizable=0;points=[];" vertex="1" connectable="0" parent="dDQQiO8JoJNOpQra_xHU-8">
          <mxGeometry x="-0.1333" y="-1" relative="1" as="geometry">
            <mxPoint as="offset" />
          </mxGeometry>
        </mxCell>
        <mxCell id="dDQQiO8JoJNOpQra_xHU-11" style="edgeStyle=orthogonalEdgeStyle;rounded=0;orthogonalLoop=1;jettySize=auto;html=1;exitX=1;exitY=0.5;exitDx=0;exitDy=0;entryX=0.5;entryY=0;entryDx=0;entryDy=0;" edge="1" parent="1" source="dDQQiO8JoJNOpQra_xHU-6" target="dDQQiO8JoJNOpQra_xHU-10">
          <mxGeometry relative="1" as="geometry" />
        </mxCell>
        <mxCell id="dDQQiO8JoJNOpQra_xHU-12" value="是" style="edgeLabel;html=1;align=center;verticalAlign=middle;resizable=0;points=[];" vertex="1" connectable="0" parent="dDQQiO8JoJNOpQra_xHU-11">
          <mxGeometry x="-0.3765" y="1" relative="1" as="geometry">
            <mxPoint as="offset" />
          </mxGeometry>
        </mxCell>
        <mxCell id="dDQQiO8JoJNOpQra_xHU-6" value="是否需要列为关键模型？" style="rhombus;whiteSpace=wrap;html=1;" vertex="1" parent="1">
          <mxGeometry x="210" y="280" width="180" height="80" as="geometry" />
        </mxCell>
        <mxCell id="dDQQiO8JoJNOpQra_xHU-18" style="edgeStyle=orthogonalEdgeStyle;rounded=0;orthogonalLoop=1;jettySize=auto;html=1;exitX=0.5;exitY=1;exitDx=0;exitDy=0;entryX=0.5;entryY=0;entryDx=0;entryDy=0;" edge="1" parent="1" source="dDQQiO8JoJNOpQra_xHU-7" target="dDQQiO8JoJNOpQra_xHU-17">
          <mxGeometry relative="1" as="geometry" />
        </mxCell>
        <mxCell id="dDQQiO8JoJNOpQra_xHU-7" value="按照规范&lt;br&gt;进行模型验收" style="rounded=0;whiteSpace=wrap;html=1;" vertex="1" parent="1">
          <mxGeometry x="240" y="400" width="120" height="60" as="geometry" />
        </mxCell>
        <mxCell id="dDQQiO8JoJNOpQra_xHU-14" style="edgeStyle=orthogonalEdgeStyle;rounded=0;orthogonalLoop=1;jettySize=auto;html=1;entryX=1;entryY=0.5;entryDx=0;entryDy=0;" edge="1" parent="1" source="dDQQiO8JoJNOpQra_xHU-10" target="dDQQiO8JoJNOpQra_xHU-7">
          <mxGeometry relative="1" as="geometry" />
        </mxCell>
        <mxCell id="dDQQiO8JoJNOpQra_xHU-10" value="将模型加入到Benchmark系统" style="rounded=0;whiteSpace=wrap;html=1;" vertex="1" parent="1">
          <mxGeometry x="430" y="400" width="120" height="60" as="geometry" />
        </mxCell>
        <mxCell id="dDQQiO8JoJNOpQra_xHU-19" style="edgeStyle=orthogonalEdgeStyle;rounded=0;orthogonalLoop=1;jettySize=auto;html=1;exitX=0.5;exitY=1;exitDx=0;exitDy=0;" edge="1" parent="1" source="dDQQiO8JoJNOpQra_xHU-17">
          <mxGeometry relative="1" as="geometry">
            <mxPoint x="300" y="610" as="targetPoint" />
          </mxGeometry>
        </mxCell>
        <mxCell id="dDQQiO8JoJNOpQra_xHU-32" value="是" style="edgeStyle=orthogonalEdgeStyle;rounded=0;orthogonalLoop=1;jettySize=auto;html=1;exitX=1;exitY=0.5;exitDx=0;exitDy=0;entryX=0;entryY=0.5;entryDx=0;entryDy=0;" edge="1" parent="1" source="dDQQiO8JoJNOpQra_xHU-17" target="dDQQiO8JoJNOpQra_xHU-28">
          <mxGeometry relative="1" as="geometry" />
        </mxCell>
        <mxCell id="dDQQiO8JoJNOpQra_xHU-17" value="性能是否差于竞品？" style="rhombus;whiteSpace=wrap;html=1;" vertex="1" parent="1">
          <mxGeometry x="210" y="500" width="180" height="80" as="geometry" />
        </mxCell>
        <mxCell id="dDQQiO8JoJNOpQra_xHU-21" style="edgeStyle=orthogonalEdgeStyle;rounded=0;orthogonalLoop=1;jettySize=auto;html=1;exitX=0.5;exitY=1;exitDx=0;exitDy=0;" edge="1" parent="1" source="dDQQiO8JoJNOpQra_xHU-20">
          <mxGeometry relative="1" as="geometry">
            <mxPoint x="300" y="700" as="targetPoint" />
          </mxGeometry>
        </mxCell>
        <mxCell id="dDQQiO8JoJNOpQra_xHU-33" value="否" style="edgeStyle=orthogonalEdgeStyle;rounded=0;orthogonalLoop=1;jettySize=auto;html=1;" edge="1" parent="1" source="dDQQiO8JoJNOpQra_xHU-20" target="dDQQiO8JoJNOpQra_xHU-17">
          <mxGeometry relative="1" as="geometry" />
        </mxCell>
        <mxCell id="dDQQiO8JoJNOpQra_xHU-20" value="常态化监控与维护" style="rounded=0;whiteSpace=wrap;html=1;" vertex="1" parent="1">
          <mxGeometry x="240" y="610" width="120" height="60" as="geometry" />
        </mxCell>
        <mxCell id="dDQQiO8JoJNOpQra_xHU-24" value="开始" style="ellipse;whiteSpace=wrap;html=1;" vertex="1" parent="1">
          <mxGeometry x="255" y="100" width="90" height="60" as="geometry" />
        </mxCell>
        <mxCell id="dDQQiO8JoJNOpQra_xHU-26" value="结束" style="ellipse;whiteSpace=wrap;html=1;" vertex="1" parent="1">
          <mxGeometry x="255" y="700" width="90" height="60" as="geometry" />
        </mxCell>
        <mxCell id="dDQQiO8JoJNOpQra_xHU-30" style="edgeStyle=orthogonalEdgeStyle;rounded=0;orthogonalLoop=1;jettySize=auto;html=1;exitX=0.5;exitY=1;exitDx=0;exitDy=0;entryX=0.5;entryY=0;entryDx=0;entryDy=0;" edge="1" parent="1" source="dDQQiO8JoJNOpQra_xHU-28" target="dDQQiO8JoJNOpQra_xHU-29">
          <mxGeometry relative="1" as="geometry" />
        </mxCell>
        <mxCell id="dDQQiO8JoJNOpQra_xHU-28" value="测试报告转交给性能优化总体接口人" style="rounded=0;whiteSpace=wrap;html=1;" vertex="1" parent="1">
          <mxGeometry x="430" y="510" width="120" height="60" as="geometry" />
        </mxCell>
        <mxCell id="dDQQiO8JoJNOpQra_xHU-31" style="edgeStyle=orthogonalEdgeStyle;rounded=0;orthogonalLoop=1;jettySize=auto;html=1;exitX=0;exitY=0.5;exitDx=0;exitDy=0;entryX=1;entryY=0.5;entryDx=0;entryDy=0;" edge="1" parent="1" source="dDQQiO8JoJNOpQra_xHU-29" target="dDQQiO8JoJNOpQra_xHU-20">
          <mxGeometry relative="1" as="geometry" />
        </mxCell>
        <mxCell id="dDQQiO8JoJNOpQra_xHU-29" value="安排同学&lt;br&gt;进行性能优化" style="rounded=0;whiteSpace=wrap;html=1;" vertex="1" parent="1">
          <mxGeometry x="430" y="610" width="120" height="60" as="geometry" />
        </mxCell>
      </root>
    </mxGraphModel>
  </diagram>
</mxfile>
